<?xml version="1.0" encoding="UTF-8"?>
<svg id="Layer_1" data-name="Layer 1" xmlns="http://www.w3.org/2000/svg" viewBox="0 0 50 50">
  <defs>
    <style>
      .cls-1 {
        fill: #0076c0;
        stroke-width: 0px;
      }
    </style>
  </defs>
  <path class="cls-1" d="M24.06,41.5h-7.52c-4.47,0-8.12-3.64-8.12-8.12v-14.78c0-4.47,3.64-8.12,8.12-8.12h14.78c4.47,0,8.12,3.64,8.12,8.12v8.21h-1.6v-8.21c0-3.59-2.92-6.52-6.52-6.52h-14.78c-3.59,0-6.52,2.92-6.52,6.52v14.78c0,3.59,2.92,6.52,6.52,6.52h7.52v1.6Z"/>
  <g>
    <rect class="cls-1" x="17.07" y="8.5" width="1.6" height="6.72"/>
    <rect class="cls-1" x="29.19" y="8.5" width="1.6" height="6.72"/>
  </g>
  <rect class="cls-1" x="9.22" y="19.66" width="29.41" height="1.6"/>
  <g>
    <rect class="cls-1" x="17.07" y="25.99" width="2.68" height="2.68"/>
    <rect class="cls-1" x="17.07" y="31" width="2.68" height="2.68"/>
    <rect class="cls-1" x="22.72" y="25.99" width="2.68" height="2.68"/>
  </g>
  <path class="cls-1" d="M33.58,41.5h-5.13l-.09-4.56,8.47-8.54,4.74,5.56-7.99,7.54ZM30.02,39.9h2.93l6.42-6.06-2.63-3.08-6.77,6.82.04,2.32Z"/>
  <rect class="cls-1" x="35.13" y="31.61" width="1.6" height="5.54" transform="translate(-13.79 35.07) rotate(-44.54)"/>
</svg>