<?xml version="1.0" encoding="UTF-8"?>
<svg id="Layer_1" data-name="Layer 1" xmlns="http://www.w3.org/2000/svg" viewBox="0 0 50 50">
  <defs>
    <style>
      .cls-1 {
        fill: none;
        stroke: #0076c0;
        stroke-linecap: round;
        stroke-linejoin: round;
        stroke-width: 1.61px;
      }
    </style>
  </defs>
  <path class="cls-1" d="M9.12,16.96c.08-1.97.25-4.15,1.29-6.15.99-1.9,2.62-2.74,4.7-2.63.58.03,1.27.37,1.7.79,2.12,2.06,3.31,4.62,3.68,7.54.15,1.17-.08,1.37-1.16,1.82-.71.29-1.44.58-2.07,1.01-1.22.84-1.6,2.5-.75,3.7,1.32,1.87,2.69,3.72,4.22,5.43,1.61,1.81,3.41,3.44,5.14,5.14.29.28.63.51.97.74,1.09.74,2.29.6,3.13-.44.4-.49.7-1.08.98-1.65,1.24-2.56,2.41-2.99,4.98-1.75,1.56.75,2.95,1.74,4.1,3.06.97,1.12,1.13,2.3.43,3.62-1.1,2.09-2.93,3.22-5.06,4.03-2.73,1.04-5.37.64-7.94-.49-6.91-3.02-12.34-7.71-15.96-14.37-1.55-2.85-2.37-5.92-2.39-9.41Z"/>
</svg>