<?xml version="1.0" encoding="UTF-8"?>
<svg id="Layer_1" data-name="Layer 1" xmlns="http://www.w3.org/2000/svg" viewBox="0 0 50 50">
  <defs>
    <style>
      .cls-1 {
        fill: none;
        stroke: #0076c0;
        stroke-linecap: round;
        stroke-linejoin: round;
        stroke-width: 1.61px;
      }
    </style>
  </defs>
  <path class="cls-1" d="M25,32.87c-1.05.05-2.2-.32-3.25-.83,1.26.52,2.4.74,3.25.83Z"/>
  <path class="cls-1" d="M18.06,29.62l6.94,14.22H6.97l.95-4.65c.63-3.08,2.53-5.66,5.14-7l4.24-2.17.76-.39h0Z"/>
  <path class="cls-1" d="M31.91,29.67l-6.91,14.16-6.94-14.22s0,0,.01.01c0,0,.01,0,.02.01,0,0,.01.01.03.02.73.7,1.92,1.67,3.62,2.38,0,0,.01,0,.01,0,1.05.5,2.2.87,3.25.83,1.04.05,2.19-.32,3.24-.82,0,0,.02,0,.03-.01.11-.04.22-.09.32-.14.1-.04.19-.08.28-.13.3-.14.58-.29.85-.45.08-.04.16-.09.24-.14.21-.13.41-.26.59-.39.1-.07.19-.14.28-.21.08-.06.16-.13.24-.19.06-.04.11-.09.16-.13.13-.1.24-.2.35-.3.11-.1.21-.19.31-.28,0,0,.01,0,.03,0Z"/>
  <path class="cls-1" d="M25,32.87c-1.05.05-2.2-.32-3.25-.83,1.26.52,2.4.74,3.25.83Z"/>
  <path class="cls-1" d="M31.87,29.67c-.32.27-1.83,1.51-3.61,2.37,0,0-.02,0-.03.01-.31.13-.61.24-.9.33-.12.04-.24.08-.36.11-.42.12-.82.21-1.19.27-.06.01-.12.02-.17.03-.22.04-.42.06-.61.08-.85-.09-1.99-.31-3.25-.83,0,0-.01,0-.01,0-1.8-.86-3.32-2.12-3.62-2.38-.01,0-.02-.01-.03-.02,0,0-.01-.01-.02-.01,0,0-.01-.01-.01-.01,1.87-.73,2.62-1.65,2.89-2.45.17-.2.34-.39.48-.58,1.83,1.56,3.56,1.57,3.56,1.57,0,0,1.97-.02,3.91-1.89-.02.54.12,1.27.82,2,.45.63,1.12,1.21,2.14,1.4Z"/>
  <path class="cls-1" d="M21.08,26.26c.12.12.24.22.35.32-.15.19-.31.38-.48.58.11-.33.14-.64.13-.9Z"/>
  <path class="cls-1" d="M25,32.87c-1.05.05-2.2-.32-3.25-.83,1.26.52,2.4.74,3.25.83Z"/>
  <path class="cls-1" d="M28.24,32.05c-1.05.5-2.19.87-3.24.82.19-.02.39-.04.61-.08.06,0,.11-.02.17-.03.37-.06.77-.15,1.19-.27.12-.03.24-.07.36-.11.29-.09.59-.2.9-.33Z"/>
  <path class="cls-1" d="M43.03,43.83h-18.03l6.91-14.16s-.02,0-.03,0c.01-.01.02-.02.03-.03,0,0,.01-.01.02-.01,0,0,.01-.01.01-.01l.17.09,4.83,2.48c2.62,1.34,4.52,3.92,5.14,7l.95,4.65Z"/>
  <path class="cls-1" d="M27.34,32.38c.29-.09.59-.2.9-.33-1.05.5-2.19.87-3.24.82.19-.02.39-.04.61-.08.06,0,.11-.02.17-.03.37-.06.77-.15,1.19-.27.12-.03.24-.07.36-.11Z"/>
  <path class="cls-1" d="M31.94,29.62l-.03.06s-.02,0-.03,0c.01-.01.02-.02.03-.03,0,0,.01-.01.02-.01,0,0,.01-.01.01-.01Z"/>
  <path class="cls-1" d="M28.24,32.05c-1.05.5-2.19.87-3.24.82.19-.02.39-.04.61-.08.06,0,.11-.02.17-.03.37-.06.77-.15,1.19-.27.12-.03.24-.07.36-.11.29-.09.59-.2.9-.33Z"/>
  <path class="cls-1" d="M31.94,29.62s0,0-.01.01c0,0-.01,0-.02.01-.01,0-.02.01-.03.03-1.02-.19-1.7-.77-2.14-1.4.46.48,1.16.95,2.2,1.35Z"/>
  <path class="cls-1" d="M20.95,27.16c.11-.33.14-.64.13-.9.12.12.24.22.35.32-.15.19-.31.38-.48.58Z"/>
  <path class="cls-1" d="M37.41,27.6s-.21.55-2.29,1.56c-1.23.51-2.22.64-3.02.54l-.17-.09c-1.05-.41-1.74-.88-2.2-1.35-.67-.95-.82-2-.82-2,2.93-2.18,3.55-8.11,3.65-9.38,0-.02,0-.03,0-.05,0-.03,0-.05,0-.07,0-.08,0-.13,0-.13-3.51-.15-5.93-.93-7.58-1.86-2.91-1.64-3.47-3.76-3.47-3.76-.19,4.3-3.92,3.86-4.22,3.81,0,0,0-.02,0-.03l-.02.03.02.03c.19,6.35,1.97,9.67,3.77,11.39.01.26-.01.57-.13.9-.87.99-2.07,2.03-3.66,2.84,0,0-4.58-1.08-4.72-2.47-.14-1.39,1.87-1.74,2.01-10.34.14-8.58,5.32-11.02,10.37-11.03h.03c8.81,0,10.61,6.04,10.47,11.38-.14,5.34,1.94,10.06,1.94,10.06Z"/>
  <path class="cls-1" d="M17.32,14.81s0,.02,0,.03h-.02l.02-.03Z"/>
  <path class="cls-1" d="M32.11,29.7c-.07,0-.14-.01-.2-.03-.01,0-.02,0-.03,0,0,0,0,0,0,0-1.02-.19-1.7-.77-2.14-1.4.46.48,1.16.95,2.2,1.35l.17.09Z"/>
  <g>
    <path class="cls-1" d="M18.06,29.62s-1.46,1.32-1.46,7.11"/>
    <path class="cls-1" d="M18.76,38.88c0,1.19-.96,2.15-2.15,2.15s-2.15-.96-2.15-2.15.96-2.15,2.15-2.15,2.15.96,2.15,2.15Z"/>
  </g>
  <g>
    <path class="cls-1" d="M31.81,30.01s1.15.53,2.5,3.6"/>
    <path class="cls-1" d="M34.43,33.89s-2.82-.92-3.55,4.99c-.31,1.54.68,1.39,1.82,1.65"/>
    <path class="cls-1" d="M34.31,33.89s2.82-.92,3.55,4.99c.31,1.54-.68,1.39-1.82,1.65"/>
  </g>
</svg>